<svg xmlns="http://www.w3.org/2000/svg" version="1.0" viewBox="0 0 489.93 489.93"><path fill="#80000f" d="M244.96 0a244.43 244.43 0 0 1 244.97 244.96 244.43 244.43 0 0 1-244.97 244.97A244.43 244.43 0 0 1 0 244.96 244.43 244.43 0 0 1 244.96 0Z" paint-order="markers stroke fill"/><g style="line-height:100%;-inkscape-font-specification:&quot;Inter Heavy&quot;" word-spacing="0"><path fill="#fff" d="M687.04 594.17V353.94h103.7q26.74 0 46.8 10.56 20.05 10.56 31.2 29.68 11.14 19.12 11.14 44.69 0 25.8-11.5 44.69-11.37 18.88-32.02 29.09-20.52 10.2-47.97 10.2h-61.93v-50.67h48.8q11.49 0 19.58-3.99 8.21-4.1 12.55-11.61 4.46-7.5 4.46-17.71 0-10.33-4.46-17.6-4.34-7.39-12.55-11.26-8.1-3.99-19.59-3.99h-22.99v188.15z" aria-label="P" font-family="Inter" font-size="330.31" font-weight="900" letter-spacing="65.4" style="-inkscape-font-specification:&quot;Inter Heavy&quot;" transform="translate(-538.5 -226.53)"/></g></svg>