<?xml version="1.0" standalone="no"?>
<!DOCTYPE svg PUBLIC "-//W3C//DTD SVG 20010904//EN"
 "http://www.w3.org/TR/2001/REC-SVG-20010904/DTD/svg10.dtd">
<svg version="1.0" xmlns="http://www.w3.org/2000/svg"
 width="937.000000pt" height="937.000000pt" viewBox="0 0 937.000000 937.000000"
 preserveAspectRatio="xMidYMid meet">
<metadata>
Created by potrace 1.14, written by Peter Selinger 2001-2017
</metadata>
<g transform="translate(0.000000,937.000000) scale(0.100000,-0.100000)"
fill="#000000" stroke="none">
<path d="M0 4685 l0 -4685 4685 0 4685 0 0 4685 0 4685 -4685 0 -4685 0 0
-4685z m5087 3845 c415 -20 730 -84 1068 -217 773 -303 1324 -926 1525 -1722
36 -144 66 -312 81 -456 14 -142 14 -498 0 -640 -53 -512 -217 -951 -495
-1323 -99 -132 -329 -363 -457 -459 -360 -269 -782 -446 -1269 -533 -285 -50
-342 -53 -1122 -57 l-738 -5 0 -1144 0 -1144 -1042 2 -1043 3 -3 3840 c-1
2112 0 3846 3 3853 3 9 342 12 1647 12 927 0 1731 -5 1845 -10z"/>
<path d="M3688 6864 c-5 -4 -8 -481 -8 -1061 l0 -1053 453 0 c343 0 475 4 547
15 495 75 816 372 896 830 25 141 15 409 -20 535 -111 398 -395 635 -861 717
-70 12 -191 16 -545 20 -250 3 -458 2 -462 -3z"/>
</g>
</svg>
